<svg xmlns="http://www.w3.org/2000/svg" viewBox="0 0 1024 1024" role="img" aria-label="Shu app icon">
  <defs>
    <linearGradient id="bg" x1="120" y1="80" x2="904" y2="944" gradientUnits="userSpaceOnUse">
      <stop offset="0" stop-color="#252c31"/>
      <stop offset="1" stop-color="#11171c"/>
    </linearGradient>
    <radialGradient id="dot" cx="0" cy="0" r="1" gradientUnits="userSpaceOnUse" gradientTransform="translate(490 474) rotate(45) scale(125)">
      <stop offset="0" stop-color="#79ffe0"/>
      <stop offset="1" stop-color="#35e7bb"/>
    </radialGradient>
    <filter id="softGlow" x="-80" y="-80" width="160" height="160" color-interpolation-filters="sRGB">
      <feGaussianBlur stdDeviation="22"/>
    </filter>
  </defs>

  <rect width="1024" height="1024" fill="url(#bg)"/>
  <g fill="#f7f7f4">
    <path d="M480 190c-42 0-74 34-74 80v68c0 43-35 78-78 78h-94c-22 0-40 18-40 40v14c0 6 4 10 10 10h124c84 0 152-68 152-152V190z"/>
    <path d="M544 190c42 0 74 34 74 80v68c0 43 35 78 78 78h94c22 0 40 18 40 40v14c0 6-4 10-10 10H696c-84 0-152-68-152-152V190z"/>
    <path d="M480 834c-42 0-74-34-74-80v-68c0-43-35-78-78-78h-94c-22 0-40-18-40-40v-14c0-6 4-10 10-10h124c84 0 152 68 152 152v138z"/>
    <path d="M544 834c42 0 74-34 74-80v-68c0-43 35-78 78-78h94c22 0 40-18 40-40v-14c0-6-4-10-10-10H696c-84 0-152 68-152 152v138z"/>
  </g>
  <circle cx="512" cy="512" r="74" fill="#35e7bb" opacity=".28" filter="url(#softGlow)"/>
  <circle cx="512" cy="512" r="60" fill="url(#dot)"/>
</svg>
